# xmcd
#
# Track frame offsets:
#	150
#	20700
#	42645
#	61177
#	78230
#	97575
#	120855
#	135267
#	153410
#	177812
#	199895
#	222297
#	242190
#	259532
#	281412
#	304272
#	329610
#
# Disc length: 4599 seconds
#
# Revision: 5
# Processed by: cddbd v1.5.2PL0 Copyright (c) Steve Scherf et al.
# Submitted via: audiograbber 1.83.01
#
DISCID=e311f511
DTITLE=Sheryl Crow and track dates - The Very Best Of
DYEAR=2003
DGENRE=Pop
TTITLE0=Sheryl Crow - All I Wanna Do (1993)
TTITLE1=Sheryl Crow - Soak up the Sun (2002)
TTITLE2=Sheryl Crow - My Favorite Mistake (1998)
TTITLE3=Sheryl Crow - The First Cut is the Deepest (2003)
TTITLE4=Sheryl Crow - Everyday is a Winding Road (1996)
TTITLE5=Sheryl Crow - Leaving Las Vegas (1993)
TTITLE6=Sheryl Crow - Strong Enough (1993)
TTITLE7=Sheryl Crow - Light in your Eyes (2003)
TTITLE8=Sheryl Crow - If It Makes You Happy (1996)
TTITLE9=Sheryl Crow - Run, Baby, Run (1993)
TTITLE10=Kid Rock and Sheryl Crow - Picture (2001)
TTITLE11=Sheryl Crow and the Corrs - C'mon, C'mon (2003)
TTITLE12=Sheryl Crow - A Change Would Do You Good (1996)
TTITLE13=Sheryl Crow - Home (1996)
TTITLE14=Sheryl Crow - There Goes the Neighborhood (1998)
TTITLE15=Sheryl Crow - I Shall Believe (1993)
TTITLE16=Sheryl Crow and Wolfgang Niedecken - It's So Easy (2002)
EXTD=YEAR: 2003\nArtist names completed. Track dates provided.
EXTT0=
EXTT1=
EXTT2=
EXTT3=
EXTT4=
EXTT5=
EXTT6=
EXTT7=
EXTT8=
EXTT9=
EXTT10=
EXTT11=
EXTT12=
EXTT13=
EXTT14=
EXTT15=
EXTT16=
PLAYORDER=
